:SAMPLES-PER-SECOND 30
:FULLY-SPECIFIED
:DEGREES
586
root  -0.0795565 32.2722 -63.661 98.0658 7.5954 83.2257
Spine  -1.19799 9.80395 -15.7919
Spine1  -0.382299 6.1343 1.25548
Neck  3.97569e-016 0 -2.38542e-015
Head  9.53348 -7.17643 26.191
R_Clavicle  0.386852 -19.2078 0.871561
R_UpperArm  37.8212 1.9195 19.4341
R_Forearm  -14.1833 -48.7623 32.8569
R_Hand  -0.319393 7.35671 -13.3202
L_Clavicle  -0.630616 19.6701 -2.05213
L_UpperArm  -12.4274 11.9251 19.5204
L_Forearm  -3.83179 32.6044 37.7552
L_Hand  -0.0529553 -2.06406 -1.92389
L_Thigh  -2.77719 12.1573 -23.4346
L_Calf  -1.26976 -3.28049 24.2712
L_Foot  4.78624 3.47326 16.166
L_Toe0  0.291908 -0.0441244 -2.13461
R_Thigh  9.68656 4.58092 -11.4259
R_Calf  16.6254 18.3488 28.6399
R_Foot  -0.158842 -1.39303 -1.9164
R_Toe0  -1.78853 -0.268069 -17.3237
587
root  0.100978 32.3433 -64.3534 100.409 7.73488 83.3295
Spine  -1.16416 7.1684 -15.1944
Spine1  -0.670719 8.31925 0.4641
Neck  3.97569e-016 0 -2.38542e-015
Head  8.98133 -7.24148 24.5636
R_Clavicle  0.408556 -20.6887 1.16302
R_UpperArm  39.8824 1.77769 23.9149
R_Forearm  -16.3582 -50.1721 36.9189
R_Hand  -0.323232 8.85921 -14.0922
L_Clavicle  -0.696041 21.517 -1.57308
L_UpperArm  -4.64971 9.18697 16.782
L_Forearm  -7.61444 29.9341 36.3064
L_Hand  -0.0952031 -1.52985 -2.80633
L_Thigh  -2.32413 12.05 -23.3137
L_Calf  0.816114 -3.56502 27.6267
L_Foot  5.88034 5.11489 17.8817
L_Toe0  0.546689 0.0360264 -6.54995
R_Thigh  10.6349 3.88685 -11.0059
R_Calf  17.8837 18.7526 30.1086
R_Foot  -0.0121891 -1.78403 -3.85755
R_Toe0  -1.78853 -0.269159 -17.3236
588
root  0.385278 32.3957 -65.2678 102.808 7.1708 85.2765
Spine  -0.997263 1.96922 -14.2064
Spine1  -0.545341 11.1915 0.79257
Neck  3.97569e-016 0 -2.38542e-015
Head  8.79603 -7.08278 22.0618
R_Clavicle  0.420109 -21.8666 1.40628
R_UpperArm  41.4672 1.71141 28.0146
R_Forearm  -14.3365 -49.8062 38.0872
R_Hand  -0.493393 10.1843 -15.7547
L_Clavicle  -0.704339 22.0068 -1.32631
L_UpperArm  0.537034 6.78846 12.026
L_Forearm  -7.4989 29.1056 35.8253
L_Hand  -0.136502 -1.02743 -3.47955
L_Thigh  -1.98246 9.18886 -20.1274
L_Calf  2.15849 -2.97159 25.4835
L_Foot  6.24943 6.57613 17.0814
L_Toe0  0.505156 0.0344412 -6.1361
R_Thigh  16.686 0.578354 -9.61485
R_Calf  14.3134 16.599 30.6192
R_Foot  0.0518612 -2.3928 -5.48643
R_Toe0  -1.78853 -0.270236 -17.3236
589
root  0.720348 32.3409 -66.3625 104.637 6.10723 88.2257
Spine  -0.960395 -3.16795 -11.9794
Spine1  -0.399905 12.3962 0.650905
Neck  3.97569e-016 0 -2.38542e-015
Head  8.72491 -6.25624 19.8182
R_Clavicle  0.421371 -22.0273 1.41083
R_UpperArm  43.0815 -0.0885449 31.0762
R_Forearm  -10.3007 -48.1393 37.3013
R_Hand  -0.703407 10.4496 -17.2279
L_Clavicle  -0.64049 20.217 -1.60641
L_UpperArm  3.31266 5.93972 7.47714
L_Forearm  -5.55122 27.7738 35.2435
L_Hand  -0.11658 -0.268169 -2.47307
L_Thigh  -1.33281 4.78823 -17.3185
L_Calf  1.79568 -2.91568 23.6833
L_Foot  6.54044 7.87942 16.3176
L_Toe0  0.505156 0.0343265 -6.1361
R_Thigh  25.1548 -3.9983 -7.02881
R_Calf  7.69316 11.9015 30.1355
R_Foot  0.177776 -2.63568 -6.84548
R_Toe0  -1.78853 -0.271259 -17.3236
590
root  1.05693 32.1886 -67.4918 105.833 5.41305 90.7416
Spine  -1.45482 -5.06489 -8.6352
Spine1  -0.838961 10.2726 -0.160519
Neck  3.97569e-016 0 -2.38542e-015
Head  8.85781 -5.06867 18.2284
R_Clavicle  0.415069 -21.4355 1.10412
R_UpperArm  44.6442 -3.64775 33.0866
R_Forearm  -5.00909 -45.8502 35.5055
R_Hand  -0.825294 10.0478 -17.9716
L_Clavicle  -0.519661 17.3936 -2.05098
L_UpperArm  3.43978 5.5134 4.61268
L_Forearm  -3.39876 25.5272 33.5681
L_Hand  -0.0227089 0.843367 -0.351607
L_Thigh  -1.44837 0.978902 -14.7645
L_Calf  2.45533 -2.77354 21.3013
L_Foot  7.11455 9.50692 16.1302
L_Toe0  0.505156 0.0340666 -6.1361
R_Thigh  28.1034 -7.64335 -4.37717
R_Calf  4.05504 8.65156 29.4261
R_Foot  0.423977 -2.37753 -8.25795
R_Toe0  -1.79152 -0.273118 -17.3535
591
root  1.36637 31.9878 -68.5326 106.92 5.39962 92.1838
Spine  -2.2638 -3.50279 -5.94563
Spine1  -1.71485 5.79782 0.304917
Neck  3.97569e-016 0 -2.38542e-015
Head  9.5722 -4.35973 16.7813
R_Clavicle  0.399687 -20.6602 0.570507
R_UpperArm  45.8776 -7.27452 34.0827
R_Forearm  0.222921 -44.0508 34.0136
R_Hand  -0.829254 9.33602 -17.8704
L_Clavicle  -0.429022 15.5329 -2.23577
L_UpperArm  2.53248 3.37678 2.72304
L_Forearm  -2.69026 23.9832 30.9165
L_Hand  0.0493539 1.6776 0.840209
L_Thigh  -2.32087 -1.38245 -12.3943
L_Calf  3.95853 -2.38622 18.4694
L_Foot  7.87198 11.2548 16.3891
L_Toe0  0.505156 0.0336706 -6.1361
R_Thigh  25.6406 -9.94097 -2.68708
R_Calf  3.16075 8.50116 27.7418
R_Foot  0.611666 -2.02143 -9.12836
R_Toe0  -1.77066 -0.267074 -17.1451
592
root  1.62802 31.7658 -69.4264 107.874 5.7407 92.9419
Spine  -2.81902 -1.08674 -5.19382
Spine1  -2.4233 1.6243 3.23741
Neck  3.97569e-016 0 -2.38542e-015
Head  11.104 -4.5917 15.3139
R_Clavicle  0.376556 -19.7695 0.136216
R_UpperArm  46.7101 -9.46798 33.8405
R_Forearm  2.23575 -43.6571 34.0191
R_Hand  -0.765804 8.22964 -17.157
L_Clavicle  -0.41734 15.2686 -2.11415
L_UpperArm  4.61475 -0.78035 0.493846
L_Forearm  -4.84451 23.0076 29.3598
L_Hand  0.00530216 1.83297 0.174759
L_Thigh  -2.95755 -2.95609 -10.3877
L_Calf  4.44245 -2.0085 15.7152
L_Foot  8.46235 12.4766 16.7402
L_Toe0  0.505156 0.0331477 -6.13611
R_Thigh  23.7068 -11.4103 -1.34157
R_Calf  1.35183 7.48422 24.0555
R_Foot  0.863653 -0.949412 -9.40026
R_Toe0  -1.62312 -0.209909 -15.3121
593
root  1.83043 31.5513 -70.1551 107.987 6.23811 93.6461
Spine  -2.80457 -0.244556 -5.71233
Spine1  -2.48396 -0.478624 7.28306
Neck  3.97569e-016 0 -2.38542e-015
Head  13.4564 -5.4089 14.6359
R_Clavicle  0.3622 -19.0018 0.136248
R_UpperArm  46.9246 -9.70912 32.7409
R_Forearm  -0.818365 -44.8187 35.7644
R_Hand  -0.742019 7.18786 -16.67
L_Clavicle  -0.445308 15.8412 -1.90913
L_UpperArm  6.60301 -4.74936 -1.79504
L_Forearm  -6.03839 22.8631 29.1342
L_Hand  -0.0924536 1.49875 -1.40628
L_Thigh  -3.49743 -4.33995 -9.1219
L_Calf  3.92703 -1.70807 13.5707
L_Foot  8.78738 13.0907 16.9908
L_Toe0  0.505156 0.0325073 -6.13611
R_Thigh  20.934 -12.2137 -0.160925
R_Calf  0.790283 5.73438 18.1275
R_Foot  1.19164 0.794224 -9.12505
R_Toe0  -0.979903 -0.15691 -11.8999
594
root  1.97807 31.3947 -70.733 106.979 6.86486 94.303
Spine  -2.29328 -0.936329 -6.40648
Spine1  -1.92768 -0.84688 10.3333
Neck  3.97569e-016 0 -2.38542e-015
Head  16.4841 -6.23511 15.4877
R_Clavicle  0.371114 -18.9663 0.446995
R_UpperArm  46.5141 -8.52052 31.8963
R_Forearm  -6.51964 -46.5481 38.139
R_Hand  -0.749398 7.32767 -16.7784
L_Clavicle  -0.469685 16.3818 -1.70404
L_UpperArm  5.53363 -6.3149 -2.66307
L_Forearm  -4.90728 23.3418 29.8852
L_Hand  -0.15361 0.832667 -2.67979
L_Thigh  -4.49875 -5.3266 -8.57175
L_Calf  3.4229 -1.52249 12.2799
L_Foot  8.96415 13.5196 17.0177
L_Toe0  0.505156 0.0317584 -6.13612
R_Thigh  17.4305 -11.7295 -0.0165196
R_Calf  2.07932 3.81128 11.894
R_Foot  1.26868 1.80652 -7.7501
R_Toe0  1.15964 -0.387631 -9.40426
595
root  2.09121 31.3272 -71.1876 105.447 7.39772 94.6229
Spine  -1.71533 -1.75358 -7.1809
Spine1  -1.37382 -0.732474 11.6181
Neck  3.97569e-016 0 -2.38542e-015
Head  19.9444 -7.02812 17.7019
R_Clavicle  0.384978 -19.5927 0.615351
R_UpperArm  46.157 -7.38159 31.9446
R_Forearm  -10.2981 -47.5158 39.6148
R_Hand  -0.68461 8.70989 -16.6676
L_Clavicle  -0.480921 16.6662 -1.45835
L_UpperArm  2.00947 -5.23302 -1.43931
L_Forearm  -4.07165 24.3006 31.4834
L_Hand  -0.16888 -0.135163 -3.52777
L_Thigh  -5.84887 -5.7744 -8.31281
L_Calf  3.10285 -1.44932 11.8134
L_Foot  9.03516 13.9279 16.7677
L_Toe0  0.505156 0.0309104 -6.13613
R_Thigh  14.328 -10.2011 -1.06673
R_Calf  3.36145 2.00857 6.20942
R_Foot  1.27602 2.23097 -6.80619
R_Toe0  3.95408 -0.981024 -6.026
596
root  2.20197 31.3397 -71.5602 103.967 7.56387 94.8039
Spine  -1.33928 -2.19968 -8.3223
Spine1  -1.19911 -0.78092 11.558
Neck  3.97569e-016 0 -2.38542e-015
Head  23.4924 -8.1414 20.8397
R_Clavicle  0.391047 -20.1141 0.544436
R_UpperArm  46.3043 -7.45064 32.5187
R_Forearm  -9.9907 -47.3465 39.6306
R_Hand  -0.565815 9.91332 -16.1735
L_Clavicle  -0.494525 17.0338 -1.23467
L_UpperArm  -1.42276 -2.87542 1.40564
L_Forearm  -6.02514 25.9859 33.8808
L_Hand  -0.16121 -1.18457 -4.25722
L_Thigh  -7.0013 -6.22922 -8.11805
L_Calf  2.4957 -1.47696 12.1096
L_Foot  8.94203 14.217 16.1893
L_Toe0  0.505156 0.0299724 -6.13614
R_Thigh  12.6759 -8.61413 -3.35601
R_Calf  3.53726 0.69694 2.10499
R_Foot  1.26678 2.40713 -6.253
R_Toe0  6.02569 -1.72992 -2.16886
597
root  2.33826 31.4084 -71.9108 102.429 7.33756 95.2364
Spine  -1.02607 -2.67655 -9.8785
Spine1  -1.16078 -0.998216 10.8302
Neck  3.97569e-016 0 -2.38542e-015
Head  26.6784 -9.64035 24.7915
R_Clavicle  0.393894 -20.2483 0.589323
R_UpperArm  46.6247 -8.44128 32.9555
R_Forearm  -7.01185 -46.6007 38.6674
R_Hand  -0.544798 9.9843 -16.0469
L_Clavicle  -0.524377 17.8126 -1.12101
L_UpperArm  -5.81494 -0.722894 5.21899
L_Forearm  -7.83676 29.4922 36.2787
L_Hand  -0.140177 -1.82648 -4.41243
L_Thigh  -8.04047 -7.15829 -7.9646
L_Calf  1.58986 -1.60035 13.1334
L_Foot  8.7032 14.4951 15.2198
L_Toe0  0.505156 0.0289537 -6.13615
R_Thigh  12.3171 -7.65723 -6.54171
R_Calf  3.71885 0.0276691 0.0132414
R_Foot  1.09987 2.38671 -4.45553
R_Toe0  7.20664 -2.09807 -2.0584
